<?xml version="1.0" encoding="utf-8"?>
<!-- Generator: Adobe Illustrator 19.0.0, SVG Export Plug-In . SVG Version: 6.00 Build 0)  -->
<svg version="1.1" id="Capa_1" xmlns="http://www.w3.org/2000/svg" xmlns:xlink="http://www.w3.org/1999/xlink" x="0px" y="0px"
	 viewBox="-62 136 30 30" style="enable-background:new -62 136 30 30;" xml:space="preserve">
<style type="text/css">
	.st0{display:none;fill:#320A43;}
	.st1{fill:#D3B9D6;}
	.st2{display:none;fill:#D3B9D6;}
</style>
<rect x="-73.4" y="126.6" class="st0" width="74.3" height="45.8"/>
<g>
	<path class="st1" d="M-37.1,137.3l-23.6,23.6c-1,1-1,2.7,0,3.8c1,1,2.7,1,3.8,0l23.6-23.6c1-1,1-2.7,0-3.8
		C-34.3,136.3-36,136.3-37.1,137.3z"/>
	<path class="st1" d="M-33.3,160.9l-23.6-23.6c-1-1-2.7-1-3.8,0c-1,1-1,2.7,0,3.8l23.6,23.6c1,1,2.7,1,3.8,0
		C-32.3,163.7-32.3,162-33.3,160.9z"/>
</g>
<path class="st2" d="M-69.9,153.7h-23.6c-1.5,0-2.7,1.2-2.7,2.7c0,1.5,1.2,2.7,2.7,2.7h23.6c1.5,0,2.7-1.2,2.7-2.7
	C-67.2,154.9-68.4,153.7-69.9,153.7z"/>
</svg>
